<svg id="visual" viewBox="0 0 900 600" width="900" height="600" xmlns="http://www.w3.org/2000/svg" xmlns:xlink="http://www.w3.org/1999/xlink" version="1.1"><rect x="0" y="0" width="900" height="600" fill="#002233"></rect><path d="M0 422L21.5 433C43 444 86 466 128.8 479.7C171.7 493.3 214.3 498.7 257.2 481.8C300 465 343 426 385.8 404.3C428.7 382.7 471.3 378.3 514.2 391.7C557 405 600 436 642.8 453.5C685.7 471 728.3 475 771.2 475C814 475 857 471 878.5 469L900 467L900 601L878.5 601C857 601 814 601 771.2 601C728.3 601 685.7 601 642.8 601C600 601 557 601 514.2 601C471.3 601 428.7 601 385.8 601C343 601 300 601 257.2 601C214.3 601 171.7 601 128.8 601C86 601 43 601 21.5 601L0 601Z" fill="#0066FF" stroke-linecap="round" stroke-linejoin="miter"></path></svg>